HIERARCHY
ROOT SpineBase
{
  OFFSET 0.000000 0.000000 0.000000
  CHANNELS 6 Xposition Yposition Zposition Zrotation Xrotation Yrotation
  JOINT SpineMid
  {
    OFFSET 0.000000 24.529944 0.000000
    CHANNELS 3 Zrotation Xrotation Yrotation
    JOINT SpineShoulder
    {
      OFFSET 0.054362 18.525321 -0.666699
      CHANNELS 3 Zrotation Xrotation Yrotation
      JOINT Neck
      {
        OFFSET 0.008699 6.182921 -0.482589
        CHANNELS 3 Zrotation Xrotation Yrotation
        JOINT Head
        {
          OFFSET 2.693924 12.471290 1.227539
          CHANNELS 3 Zrotation Xrotation Yrotation
          End Site
          {
            OFFSET 0 0 0
          }
        }
      }
      JOINT ShoulderLeft
      {
        OFFSET -13.450783 -2.351052 -7.723124
        CHANNELS 3 Zrotation Xrotation Yrotation
        JOINT ElbowLeft
        {
          OFFSET -11.134511 -20.958452 -2.870241
          CHANNELS 3 Zrotation Xrotation Yrotation
          JOINT WristLeft
          {
            OFFSET 4.855754 -6.997676 -21.505814
            CHANNELS 3 Zrotation Xrotation Yrotation
            JOINT HandLeft
            {
              OFFSET 0.957153 -4.042641 -2.529855
              CHANNELS 3 Zrotation Xrotation Yrotation
              JOINT HandTipLeft
              {
                OFFSET 1.904980 -5.843723 0.656232
                CHANNELS 3 Zrotation Xrotation Yrotation
                End Site
                {
                  OFFSET 0 0 0
                }
              }
              JOINT ThumbLeft
              {
                OFFSET -1.727366 -5.229603 1.897199
                CHANNELS 3 Zrotation Xrotation Yrotation
                End Site
                {
                  OFFSET 0 0 0
                }
              }
            }
          }
        }
      }
      JOINT ShoulderRight
      {
        OFFSET 14.796452 -5.626421 5.189202
        CHANNELS 3 Zrotation Xrotation Yrotation
        JOINT ElbowRight
        {
          OFFSET 5.064761 -25.265679 8.034237
          CHANNELS 3 Zrotation Xrotation Yrotation
          JOINT WristRight
          {
            OFFSET -2.188614 16.914118 -21.453100
            CHANNELS 3 Zrotation Xrotation Yrotation
            JOINT HandRight
            {
              OFFSET -3.244357 4.866639 -3.576818
              CHANNELS 3 Zrotation Xrotation Yrotation
              JOINT HandTipRight
              {
                OFFSET -0.534245 1.145339 -1.597566
                CHANNELS 3 Zrotation Xrotation Yrotation
                End Site
                {
                  OFFSET 0 0 0
                }
              }
              JOINT ThumbRight
              {
                OFFSET 0.823469 2.349216 -0.098060
                CHANNELS 3 Zrotation Xrotation Yrotation
                End Site
                {
                  OFFSET 0 0 0
                }
              }
            }
          }
        }
      }
    }
  }
  JOINT HipLeft
  {
    OFFSET -6.495631 1.273160 -5.412979
    CHANNELS 3 Zrotation Xrotation Yrotation
    JOINT KneeLeft
    {
      OFFSET 14.018551 -2.208469 -27.502141
      CHANNELS 3 Zrotation Xrotation Yrotation
      JOINT AnkleLeft
      {
        OFFSET 0.622781 -34.880009 -6.987360
        CHANNELS 3 Zrotation Xrotation Yrotation
        JOINT FootLeft
        {
          OFFSET 3.801772 -2.836915 -12.052038
          CHANNELS 3 Zrotation Xrotation Yrotation
          End Site
          {
            OFFSET 0 0 0
          }
        }
      }
    }
  }
  JOINT HipRight
  {
    OFFSET 6.242200 1.042558 -0.756196
    CHANNELS 3 Zrotation Xrotation Yrotation
    JOINT KneeRight
    {
      OFFSET 21.287459 -6.625166 -19.747578
      CHANNELS 3 Zrotation Xrotation Yrotation
      JOINT AnkleRight
      {
        OFFSET -1.948928 -31.382124 -4.072106
        CHANNELS 3 Zrotation Xrotation Yrotation
        JOINT FootRight
        {
          OFFSET -0.966583 -6.195757 -8.079165
          CHANNELS 3 Zrotation Xrotation Yrotation
          End Site
          {
            OFFSET 0 0 0
          }
        }
      }
    }
  }
}
MOTION
Frames: 14
Frame Time: 0.033333
13.826119 43.623857 374.067946 -7.240880 -4.545185 -11.069849 -0.744310 1.037511 10.613823 1.447779 -1.405369 -0.336718 -4.309465 -8.241915 3.759473 0.000000 0.000000 0.000000 64.810081 43.492308 -66.786246 45.530374 19.930492 -50.379797 -0.999866 32.167431 47.427635 38.784875 33.408657 122.774395 0.000000 0.000000 0.000000 0.000000 0.000000 0.000000 83.231808 47.548749 -5.895971 -34.612562 14.747658 3.498814 -25.504663 -33.464773 -28.755893 -2.386486 -17.891931 8.161500 0.000000 0.000000 0.000000 0.000000 0.000000 0.000000 5.498341 3.628145 12.717321 1.121893 0.267161 -2.231875 -19.017817 -35.942144 -34.795061 0.000000 0.000000 0.000000 6.321832 5.058366 8.231507 -1.034647 1.732930 2.323074 11.437374 14.237746 -14.799695 0.000000 0.000000 0.000000
13.833669 43.544594 374.032445 -7.566376 -4.251358 -10.934055 -0.675642 1.005332 10.470033 1.535095 -1.644418 -0.355562 -4.023643 -10.540126 4.055834 0.000000 0.000000 0.000000 64.862650 43.413905 -66.562012 45.244578 19.533888 -50.166944 -3.996064 33.006947 46.204035 50.806793 32.087235 139.518684 0.000000 0.000000 0.000000 0.000000 0.000000 0.000000 82.099811 47.615467 -5.604099 -34.039948 14.834939 3.063067 -21.129470 -35.189881 -23.051163 -1.637060 -19.944394 11.346583 0.000000 0.000000 0.000000 0.000000 0.000000 0.000000 5.862182 3.308282 12.530681 1.029775 0.388320 -2.153809 -18.899904 -35.658539 -36.112142 0.000000 0.000000 0.000000 7.593061 5.814548 7.670148 -2.015848 1.153288 2.622184 13.450791 16.385054 -17.424567 0.000000 0.000000 0.000000
14.009933 43.400042 374.009753 -7.609967 -3.857304 -10.823575 -0.585771 0.837399 10.367048 1.436290 -1.845528 -0.369720 -3.807167 -12.875818 4.359433 0.000000 0.000000 0.000000 64.448312 43.528916 -66.130365 45.649489 19.161876 -50.413480 -7.079495 31.219770 46.603000 55.396918 33.469297 142.282975 0.000000 0.000000 0.000000 0.000000 0.000000 0.000000 81.303550 47.225028 -5.111438 -33.658200 15.058517 3.326641 -17.246259 -34.038955 -18.250413 -5.034571 -21.849361 8.612362 0.000000 0.000000 0.000000 0.000000 0.000000 0.000000 5.985346 2.956050 12.609272 0.795247 0.306479 -2.257389 -18.601094 -35.399008 -36.528166 0.000000 0.000000 0.000000 7.897576 5.693667 7.694847 -2.470462 0.774695 2.548238 13.852404 16.589923 -17.662115 0.000000 0.000000 0.000000
14.308772 43.244226 374.024338 -6.713665 -4.527757 -10.591811 -0.122814 -0.329759 10.081777 0.911751 -1.390262 -0.333657 -9.153658 -8.238289 4.448638 0.000000 0.000000 0.000000 64.333510 44.567105 -67.481030 46.845695 18.744056 -51.117786 -12.653789 26.554441 47.787932 42.323183 31.407700 125.947557 0.000000 0.000000 0.000000 0.000000 0.000000 0.000000 81.496269 46.840350 -6.571908 -33.452531 15.577522 3.445345 -14.946078 -32.980334 -15.429357 -8.471531 -23.458702 4.983438 0.000000 0.000000 0.000000 0.000000 0.000000 0.000000 4.992048 3.494760 12.777695 0.643181 0.168221 -2.608882 -18.555850 -35.365019 -36.779905 0.000000 0.000000 0.000000 6.986629 6.398965 7.852288 -2.873109 0.286078 2.198050 13.031667 15.547432 -16.267337 0.000000 0.000000 0.000000
14.657493 43.079724 374.029784 -6.154005 -5.045324 -10.535784 -0.162166 -0.722954 10.025098 0.723622 -1.210596 -0.316267 -10.946533 -5.997495 4.608505 0.000000 0.000000 0.000000 63.648201 45.302936 -67.609502 48.448961 18.679538 -52.354789 -17.595847 19.292704 49.378118 38.957727 30.813242 115.331025 0.000000 0.000000 0.000000 0.000000 0.000000 0.000000 80.908733 46.382873 -6.923420 -33.081420 15.979210 3.603480 -10.457442 -30.380268 -9.757677 -14.002190 -26.246908 -0.345947 0.000000 0.000000 0.000000 0.000000 0.000000 0.000000 4.391824 4.143227 13.238363 0.530583 -0.084290 -3.108995 -18.666738 -35.598902 -36.312614 0.000000 0.000000 0.000000 6.260423 6.904853 8.362300 -3.076851 -0.129876 1.687664 15.012242 17.294226 -18.512257 0.000000 0.000000 0.000000
14.963430 42.968598 374.073185 -5.730984 -5.683787 -10.446205 -0.075661 -0.873296 9.935492 0.578997 -1.024350 -0.292989 -12.464809 -3.937676 4.782929 0.000000 0.000000 0.000000 62.259988 46.016116 -67.030586 50.705327 20.544404 -54.692154 -17.732181 9.971827 51.862229 39.510521 32.125004 104.323109 0.000000 0.000000 0.000000 0.000000 0.000000 0.000000 79.538057 46.246314 -7.196678 -32.315563 16.123618 3.830821 -7.132054 -29.858357 -5.354777 -20.040364 -25.862783 -6.456600 0.000000 0.000000 0.000000 0.000000 0.000000 0.000000 3.935951 5.041481 13.653852 0.424989 -0.354003 -3.624329 -18.959207 -36.108264 -35.600209 0.000000 0.000000 0.000000 5.326363 7.175382 8.974781 -2.837838 -0.250614 1.074282 15.856105 17.802995 -19.381633 0.000000 0.000000 0.000000
15.161850 42.891868 374.147779 -5.596236 -6.365831 -10.427307 -0.014299 -1.053930 9.890498 0.312040 -0.841882 -0.287498 -12.412828 -1.989026 4.885308 0.000000 0.000000 0.000000 61.188635 46.654580 -66.217768 52.513584 20.779454 -56.510602 -18.535286 1.659804 54.045057 32.528707 38.161198 87.367944 0.000000 0.000000 0.000000 0.000000 0.000000 0.000000 78.970636 46.092598 -7.612624 -31.542000 16.315620 4.545909 -1.942048 -29.182132 1.472622 -30.849302 -22.760574 -17.209812 0.000000 0.000000 0.000000 0.000000 0.000000 0.000000 3.802136 6.197526 13.957403 0.287004 -0.721910 -4.001744 -19.120742 -36.606000 -34.277607 0.000000 0.000000 0.000000 5.354332 8.300388 9.205280 -3.263032 -0.894890 0.738253 15.848940 17.391622 -19.299965 0.000000 0.000000 0.000000
15.251015 42.821782 374.238187 -5.737158 -7.022290 -10.746554 -0.005519 -1.085380 10.164499 0.009849 -0.670111 -0.292897 -10.855450 -0.600204 4.783113 0.000000 0.000000 0.000000 60.439621 47.153045 -65.288943 53.769486 19.776929 -57.630783 -20.565644 -5.560826 55.593743 25.460547 42.332765 74.233567 0.000000 0.000000 0.000000 0.000000 0.000000 0.000000 78.912870 45.420030 -7.570479 -31.468553 16.798735 4.158185 3.725039 -28.125788 8.804325 -33.367293 -23.732255 -16.166095 0.000000 0.000000 0.000000 0.000000 0.000000 0.000000 3.949653 7.541631 14.406103 0.076473 -1.221413 -4.227026 -19.412813 -37.179738 -33.259322 0.000000 0.000000 0.000000 5.418658 9.237814 9.766611 -3.435639 -1.344907 0.408543 15.331893 16.707919 -18.614364 0.000000 0.000000 0.000000
15.234401 42.766971 374.283166 -6.097393 -7.516936 -10.873027 -0.027043 -1.075205 10.229743 -0.259226 -0.489221 -0.303820 -9.072134 0.734826 4.577053 0.000000 0.000000 0.000000 60.229268 47.373948 -64.515739 54.260362 17.889983 -58.010314 -23.916405 -11.004704 56.164715 21.770571 41.169751 67.776405 0.000000 0.000000 0.000000 0.000000 0.000000 0.000000 79.447588 45.013420 -7.590450 -31.698766 17.030084 3.478453 6.940777 -28.048750 12.834475 -35.673907 -20.506566 -17.785509 0.000000 0.000000 0.000000 0.000000 0.000000 0.000000 4.294258 8.438673 14.408364 -0.138972 -1.571992 -4.194414 -19.227087 -37.212126 -32.291989 0.000000 0.000000 0.000000 5.728845 9.909790 9.885248 -3.471260 -1.597090 0.304033 11.760921 11.897554 -13.926198 0.000000 0.000000 0.000000
15.078410 42.757974 374.266493 -6.614098 -7.782189 -10.883096 0.022978 -0.929957 10.173823 -0.465506 -0.306350 -0.313843 -7.798629 0.641757 4.461557 0.000000 0.000000 0.000000 60.443896 47.180340 -63.899631 53.973093 15.399761 -57.742060 -28.502465 -15.430147 55.908034 24.964616 34.206166 66.584428 0.000000 0.000000 0.000000 0.000000 0.000000 0.000000 80.389433 44.964839 -7.594702 -32.197117 16.968475 2.649252 2.230433 -33.834225 5.998033 -25.804156 -18.127922 -8.286472 0.000000 0.000000 0.000000 0.000000 0.000000 0.000000 4.805235 8.885956 14.054459 -0.205049 -1.666525 -3.934443 -18.788978 -36.747071 -32.032866 0.000000 0.000000 0.000000 6.516499 10.588532 9.535774 -3.515826 -1.860273 0.449011 8.729813 7.722314 -10.090765 0.000000 0.000000 0.000000
14.749784 42.829733 374.206080 -7.346120 -7.794493 -11.129146 0.107576 -0.644602 10.349392 -0.612020 -0.135183 -0.330450 -6.847963 -1.144342 4.475334 0.000000 0.000000 0.000000 61.009447 46.811513 -63.464854 53.244477 12.974477 -56.858756 -33.823865 -17.103636 54.578766 28.035604 26.528840 67.807494 0.000000 0.000000 0.000000 0.000000 0.000000 0.000000 81.045983 45.725919 -7.643890 -32.274194 16.371700 2.088419 -1.382001 -36.155895 1.406082 -19.063203 -16.495665 -1.890111 0.000000 0.000000 0.000000 0.000000 0.000000 0.000000 5.480640 8.802626 13.461371 -0.302431 -1.442727 -3.168836 -18.106893 -36.709301 -29.561078 0.000000 0.000000 0.000000 7.051749 10.409580 9.317366 -3.104858 -1.525667 0.820791 4.875173 1.424380 -4.629081 0.000000 0.000000 0.000000
14.416800 42.903984 374.095673 -8.062121 -7.673992 -11.150858 0.240553 -0.531492 10.302068 -0.607971 -0.114857 -0.353961 -6.425894 -2.729612 4.583420 0.000000 0.000000 0.000000 62.185568 46.507703 -63.880280 51.928374 10.671806 -55.279461 -37.913110 -14.152428 53.142691 31.257690 19.558804 72.372963 0.000000 0.000000 0.000000 0.000000 0.000000 0.000000 82.120287 46.587682 -8.113445 -32.446534 15.773803 1.700728 -7.357991 -37.469823 -6.024526 -14.950206 -12.216405 -0.108494 0.000000 0.000000 0.000000 0.000000 0.000000 0.000000 6.183596 8.536216 12.697273 -0.344242 -1.281806 -2.451092 -18.167700 -36.473665 -31.081121 0.000000 0.000000 0.000000 7.640968 10.066293 8.843071 -2.764562 -1.266591 1.247063 2.908814 -1.953658 -1.718250 0.000000 0.000000 0.000000
14.333007 42.944740 373.982161 -8.319922 -7.559294 -11.426215 0.128091 -0.318920 10.575000 -0.558824 -0.136946 -0.370774 -6.324835 -3.952834 4.633474 0.000000 0.000000 0.000000 63.116109 46.262024 -64.397647 51.126756 8.681172 -54.046966 -40.681454 -13.725484 52.844948 31.324125 13.775199 72.376801 0.000000 0.000000 0.000000 0.000000 0.000000 0.000000 82.643483 46.880378 -8.044865 -32.632677 15.592426 1.511167 -12.779939 -37.820106 -12.797794 -13.646292 -7.890910 -1.201487 0.000000 0.000000 0.000000 0.000000 0.000000 0.000000 6.308256 8.037550 12.704713 -0.311243 -1.074095 -2.162354 -18.718616 -36.372947 -34.176717 0.000000 0.000000 0.000000 7.616400 9.651147 8.985269 -2.672340 -1.106700 1.448937 4.227568 0.412427 -3.534921 0.000000 0.000000 0.000000
14.366596 43.001754 373.878864 -8.309826 -7.546827 -11.638313 0.037043 -0.344248 10.791133 -0.370787 -0.284227 -0.383541 -7.061570 -3.234342 4.691995 0.000000 0.000000 0.000000 64.116825 46.266744 -65.554848 50.670308 7.292363 -53.197021 -42.812665 -12.991711 52.558166 27.997055 8.114415 70.737442 0.000000 0.000000 0.000000 0.000000 0.000000 0.000000 82.526430 47.160036 -8.369883 -32.386908 15.515011 1.651318 -17.005004 -36.223200 -18.039550 -15.268008 -4.398891 -6.394867 0.000000 0.000000 0.000000 0.000000 0.000000 0.000000 6.111855 7.475833 12.975377 -0.112303 -0.771474 -2.184808 -19.408092 -36.233794 -37.532297 0.000000 0.000000 0.000000 7.297613 9.310315 9.251086 -2.663307 -1.010931 1.506133 5.707306 3.352692 -5.475143 0.000000 0.000000 0.000000
